# xmcd
#
# Track frame offsets:
#	150
#	26472
#	34207
#
# Disc length: 691 seconds
#
# Revision: 1
# Processed by: cddbd v1.4PL0 Copyright (c) Steve Scherf et al.
# Submitted via: audiograbber 1.81.03
#
DISCID=1b02b103
DTITLE=Grandaddy - Laughing Stock
DYEAR=1900
DGENRE=
TTITLE0=Laughing Stock
TTITLE1=G.P.C.
TTITLE2=12-PAK-599
EXTD=
EXTT0=
EXTT1=
EXTT2=
PLAYORDER=
